<svg width="40" height="40" viewBox="0 0 40 40" fill="none" xmlns="http://www.w3.org/2000/svg">
<g clip-path="url(#clip0)">
<path d="M19.7188 0.8125C12.1184 0.8125 5.94189 6.98912 5.94189 14.5894C5.94189 17.161 6.65385 19.6639 8.0085 21.8223L18.7848 39.4577C18.9687 39.7562 19.2442 39.94 19.5658 39.9859C20.0019 40.0547 20.4843 39.8711 20.7368 39.4348L31.544 21.6385C32.8296 19.5261 33.4956 17.0693 33.4956 14.5894C33.4956 6.98912 27.3191 0.8125 19.7188 0.8125ZM19.7188 21.4778C15.8614 21.4778 12.8303 18.355 12.8303 14.5894C12.8303 10.8006 15.93 7.70093 19.7188 7.70093C23.5075 7.70093 26.6072 10.8006 26.6072 14.5894C26.6072 18.3321 23.6221 21.4778 19.7188 21.4778Z" fill="#334ac0"/>
<path d="M19.7188 0.8125V7.70093C23.5075 7.70093 26.6072 10.8006 26.6072 14.5894C26.6072 18.3321 23.6221 21.4778 19.7188 21.4778V39.9993C20.1105 40.0084 20.5134 39.8206 20.7367 39.4348L31.5439 21.6385C32.8296 19.5261 33.4956 17.0693 33.4956 14.5894C33.4956 6.98912 27.3191 0.8125 19.7188 0.8125Z" fill="#334ac0"/>
</g>
<defs>
<clipPath id="clip0">
<rect width="39.1875" height="39.1875" fill="white" transform="translate(0.125 0.8125)"/>
</clipPath>
</defs>
</svg>
