<svg id="flat" height="512" viewBox="0 0 512 512" width="512" xmlns="http://www.w3.org/2000/svg"><path d="m296 88a32 32 0 0 1 32 32v24h-32v32h-80v-32h-32v-24a32 32 0 0 1 32-32z" fill="#ffc431"/><rect fill="#ffb401" height="24" rx="8" width="16" x="208" y="120"/><rect fill="#ffb401" height="24" rx="8" width="16" x="288" y="120"/><path d="m184 144h32v32h-32z" fill="#ffceb6"/><path d="m296 144h32v32h-32z" fill="#ffceb6"/><path d="m232 64 24-16h24v24a24 24 0 0 1 -24 24 24 24 0 0 1 -24-24z" fill="#ffceb6"/><path d="m280 48 4.68629-4.68629a11.31372 11.31372 0 0 0 3.31371-8 11.31369 11.31369 0 0 0 -11.3137-11.31371h-20.6863a24 24 0 0 0 -24 24v16l24-16z" fill="#c47220"/><g fill="#02c26a"><path d="m24 240h40l32-24h56v56l-24 24 32 16v32l-56 24v40l-40-40v-48l-40-24z"/><path d="m184 280v-56l16-16h40v24z"/><path d="m200 312 48-48h40v-24l32-24h144v88l-48 40v24h-48v24l24 24v16h-24l-32-32v-32h-24l-16-24h-24l-24-24h-48z"/><path d="m192 352h40l32 32h32v56h-64v-32l-40-32z"/><path d="m424 456v-40l24-16 40 16v72h-24z"/><path d="m128 432v-32l32-16 32 24v48l-40 32v-40z"/></g><circle cx="96" cy="272" fill="#bed3f7" r="16"/><path d="m96 296a24 24 0 1 1 24-24 24.0275 24.0275 0 0 1 -24 24zm0-32a8 8 0 1 0 8 8 8.00917 8.00917 0 0 0 -8-8z" fill="#e0edff"/><circle cx="416" cy="272" fill="#bed3f7" r="16"/><path d="m416 296a24 24 0 1 1 24-24 24.0275 24.0275 0 0 1 -24 24zm0-32a8 8 0 1 0 8 8 8.00917 8.00917 0 0 0 -8-8z" fill="#e0edff"/></svg>